<?xml version="1.0" standalone="no"?>
<!DOCTYPE svg PUBLIC "-//W3C//DTD SVG 20010904//EN"
 "http://www.w3.org/TR/2001/REC-SVG-20010904/DTD/svg10.dtd">
<svg version="1.0" xmlns="http://www.w3.org/2000/svg"
 width="700.000000pt" height="700.000000pt" viewBox="0 0 700.000000 700.000000"
 preserveAspectRatio="xMidYMid meet">
<metadata>
Created by potrace 1.14, written by Peter Selinger 2001-2017
</metadata>
<g transform="translate(0.000000,700.000000) scale(0.100000,-0.100000)"
fill="#000000" stroke="none">
<path d="M1880 6989 c-120 -12 -314 -54 -434 -93 -799 -263 -1360 -968 -1436
-1806 -8 -89 -10 -573 -8 -1675 4 -1547 4 -1550 26 -1665 87 -457 279 -826
587 -1135 309 -308 678 -500 1135 -587 115 -22 118 -22 1665 -25 1055 -3 1588
-1 1670 7 639 57 1209 395 1563 926 164 245 267 508 324 821 l23 128 0 1615 0
1615 -23 128 c-57 313 -160 576 -324 821 -350 525 -914 863 -1542 925 -133 13
-3096 13 -3226 0z m491 -1382 c18 -12 44 -38 56 -56 l23 -34 0 -549 c0 -612 2
-593 -68 -646 -30 -23 -45 -27 -102 -27 -57 0 -72 4 -103 28 -75 57 -72 34
-75 592 -2 275 0 523 3 552 12 100 80 163 175 163 43 0 65 -6 91 -23z m-735
-19 c18 -13 42 -38 53 -58 18 -33 20 -60 24 -560 4 -583 4 -574 75 -719 28
-57 62 -101 150 -194 128 -134 173 -211 192 -327 6 -40 10 -354 10 -828 0
-856 -4 -807 73 -843 23 -10 53 -19 67 -19 14 0 44 9 67 19 77 36 73 -14 73
853 0 632 3 785 15 841 23 107 72 188 188 307 104 107 146 170 190 287 21 56
21 75 27 598 l5 540 25 43 c71 125 242 116 309 -15 8 -15 11 -179 11 -550 0
-476 -2 -537 -19 -618 -41 -197 -121 -344 -273 -501 -54 -55 -104 -117 -113
-137 -13 -32 -15 -140 -15 -819 0 -630 -3 -793 -14 -834 -47 -176 -191 -311
-374 -350 -85 -18 -131 -17 -210 1 -184 43 -332 186 -371 356 -7 28 -11 335
-11 827 0 664 -2 788 -15 818 -8 19 -54 74 -102 123 -187 187 -280 385 -304
650 -6 68 -9 301 -7 561 3 488 2 475 66 535 53 50 146 55 208 13z m3451 -2
c106 -49 188 -151 212 -264 15 -73 16 -3153 0 -3238 -36 -197 -203 -354 -410
-386 -266 -40 -522 146 -559 407 -5 39 -10 251 -10 472 l0 401 -45 26 c-163
96 -298 274 -352 466 -17 60 -18 119 -18 780 0 808 -4 766 80 937 77 156 236
304 397 370 139 56 185 63 423 60 219 -2 220 -2 282 -31z"/>
<path d="M4556 5249 c-149 -52 -254 -160 -292 -304 -21 -78 -20 -1308 1 -1389
32 -124 122 -222 258 -286 80 -37 113 -63 136 -107 8 -15 11 -169 11 -513 0
-532 0 -535 55 -578 58 -46 146 -38 200 18 l30 31 0 1572 0 1572 -170 2 c-149
2 -177 0 -229 -18z"/>
</g>
</svg>
