<svg width="24" height="24" viewBox="0 0 24 24" fill="none" xmlns="http://www.w3.org/2000/svg">
<path d="M1.79883 1.89566V6.98571V7.08837V6.98571C1.79883 8.43903 2.43295 9.7258 3.41613 10.5585C3.89685 10.9658 4.21451 11.5156 4.21451 12.1259V20.6223C4.21451 21.5668 5.02618 22.3334 6.02628 22.3334C7.02637 22.3334 7.83804 21.5668 7.83804 20.6223V12.1259C7.83804 11.5156 8.15571 10.9658 8.63643 10.5585C9.61961 9.7258 10.2537 8.43903 10.2537 6.98571V1.89566V6.98571" stroke="#FAFAFA" stroke-width="2" stroke-linecap="round" stroke-linejoin="round"/>
<path d="M6.02539 7.50376V1.79999" stroke="#FAFAFA" stroke-width="2" stroke-linecap="round" stroke-linejoin="round"/>
<path d="M22.3322 2.99973C22.3322 2.37004 21.7911 1.85898 21.1243 1.85898H19.9165C17.9151 1.85898 16.293 3.39101 16.293 5.28124V12.1258C16.293 13.6133 17.3039 14.867 18.7087 15.3381V20.6221C18.7087 21.5667 19.5203 22.3332 20.5204 22.3332C21.5205 22.3332 22.3322 21.5667 22.3322 20.6221V15.548V2.99973Z" stroke="#FAFAFA" stroke-width="2" stroke-linecap="round" stroke-linejoin="round"/>
</svg>
